<?xml version="1.0" encoding="iso-8859-1"?>
<!-- Generator: Adobe Illustrator 19.0.0, SVG Export Plug-In . SVG Version: 6.00 Build 0)  -->
<svg version="1.1" id="Capa_1" xmlns="http://www.w3.org/2000/svg" xmlns:xlink="http://www.w3.org/1999/xlink" x="0px" y="0px"
	 viewBox="0 0 512 512" style="enable-background:new 0 0 512 512;" xml:space="preserve">
<g>
	<g>
		<path d="M370.981,0H261.077c-42.591,0-80.659,25.419-96.982,64.759L78.517,271h57.464v124c0,24.813,20.187,45,45,45h54v72h30V410
			h-84c-8.271,0-15-6.729-15-15v-30.229L223.522,336l-57.541-28.771V241h-42.536l68.358-164.744
			C203.463,48.157,230.654,30,261.077,30h109.904c57.897,0,105,47.103,105,105v140.692c0,19.423-9.818,37.188-26.264,47.521
			c-31.933,20.064-47.018,58.07-37.537,94.573L436.652,512h30.995l-26.43-101.757c-6.179-23.787,3.651-48.554,24.461-61.629
			c25.236-15.856,40.303-43.117,40.303-72.922V135C505.981,60.561,445.42,0,370.981,0z"/>
	</g>
</g>
<g>
	<g>
		<circle cx="85.981" cy="336" r="20"/>
	</g>
</g>
<g>
	<g>
		<path d="M50.626,300.645l-21.213-21.213c-31.191,31.192-31.191,81.945,0,113.137l21.213-21.213
			C31.132,351.861,31.132,320.14,50.626,300.645z"/>
	</g>
</g>
<g>
	<g>
		<rect x="200.98" y="153.5" width="30" height="45"/>
	</g>
</g>
<g>
</g>
<g>
</g>
<g>
</g>
<g>
</g>
<g>
</g>
<g>
</g>
<g>
</g>
<g>
</g>
<g>
</g>
<g>
</g>
<g>
</g>
<g>
</g>
<g>
</g>
<g>
</g>
<g>
</g>
</svg>
