<?xml version="1.0" encoding="iso-8859-1"?>
<!-- Generator: Adobe Illustrator 19.0.0, SVG Export Plug-In . SVG Version: 6.00 Build 0)  -->
<svg version="1.1" id="Capa_1" xmlns="http://www.w3.org/2000/svg" xmlns:xlink="http://www.w3.org/1999/xlink" x="0px" y="0px"
	 viewBox="0 0 511.999 511.999" style="enable-background:new 0 0 511.999 511.999;" xml:space="preserve">
<g>
	<g>
		<path d="M95.758,344.692h-0.081c-4.142,0-7.459,3.358-7.459,7.5c0,4.142,3.398,7.5,7.54,7.5c4.142,0,7.5-3.358,7.5-7.5
			C103.258,348.05,99.9,344.692,95.758,344.692z"/>
	</g>
</g>
<g>
	<g>
		<path d="M159.887,344.692h-0.08c-4.142,0-7.46,3.358-7.46,7.5c0,4.142,3.398,7.5,7.54,7.5c4.142,0,7.5-3.358,7.5-7.5
			C167.387,348.05,164.029,344.692,159.887,344.692z"/>
	</g>
</g>
<g>
	<g>
		<path d="M424.419,344.692h-0.08c-4.142,0-7.46,3.358-7.46,7.5c0,4.142,3.398,7.5,7.54,7.5c4.142,0,7.5-3.358,7.5-7.5
			C431.919,348.05,428.561,344.692,424.419,344.692z"/>
	</g>
</g>
<g>
	<g>
		<path d="M505.107,254.016l-10.084-10.084l-20.315-60.946c3.031-0.963,5.228-3.798,5.228-7.147c0-4.142-3.358-7.5-7.5-7.5h-72.661
			v-32.578c0-8.556-6.96-15.516-15.516-15.516H15.516C6.96,120.245,0,127.206,0,135.761v176.354c0,8.556,6.96,15.516,15.516,15.516
			h8.532v16.544c0,8.556,6.96,15.516,15.516,15.516h17.271c3.516,18.24,19.591,32.064,38.842,32.064
			c13.182,0,24.871-6.486,32.064-16.428c7.194,9.942,18.883,16.428,32.065,16.428c19.251,0,35.327-13.824,38.842-32.064h186.848
			c3.516,18.24,19.591,32.064,38.842,32.064c21.816,0,39.564-17.749,39.564-39.564c0-0.172-0.011-0.341-0.013-0.512h32.594
			c8.556,0,15.516-6.96,15.516-15.516v-65.508C512,264.37,509.552,258.461,505.107,254.016z M56.835,344.692H39.564
			c-0.285,0-0.516-0.231-0.516-0.516v-16.544h25.645C60.813,332.518,58.06,338.334,56.835,344.692z M95.677,376.757
			c-13.545,0-24.564-11.02-24.564-24.564c0-13.493,10.937-24.477,24.411-24.561h0.308c13.474,0.083,24.411,11.067,24.411,24.561
			C120.242,365.737,109.222,376.757,95.677,376.757z M159.807,376.757c-13.545,0-24.565-11.02-24.565-24.564
			c0-13.493,10.937-24.477,24.411-24.561h0.308c13.474,0.083,24.411,11.067,24.411,24.561
			C184.371,365.737,173.352,376.757,159.807,376.757z M385.497,344.692H198.649c-1.225-6.358-3.978-12.175-7.859-17.061h145.371
			c4.142,0,7.5-3.358,7.5-7.5c0-4.142-3.358-7.5-7.5-7.5H15.516c-0.285,0-0.516-0.231-0.516-0.516V135.761
			c0-0.285,0.231-0.516,0.516-0.516h368.742c0.285,0,0.516,0.231,0.516,0.516v176.871h-16.545c-4.142,0-7.5,3.358-7.5,7.5
			c0,4.142,3.358,7.5,7.5,7.5h25.126C389.474,332.518,386.722,338.334,385.497,344.692z M480.734,248.499h-48.379
			c-0.285,0-0.516-0.231-0.516-0.516v-32.581h37.863L480.734,248.499z M424.339,376.757c-13.545,0-24.564-11.02-24.564-24.564
			c0-13.493,10.937-24.477,24.411-24.561h0.154c0.017,0,0.034-0.002,0.052-0.003c13.521,0.028,24.513,11.036,24.513,24.563
			C448.903,365.737,437.884,376.757,424.339,376.757z M497,336.165c0,0.285-0.231,0.516-0.516,0.516h-35.752
			c-6.045-14.127-20.08-24.052-36.393-24.052c-0.052,0-0.102,0.004-0.154,0.004h-24.41V183.858v-0.004
			c0-0.285,0.231-0.516,0.516-0.516h58.723l5.688,17.064h-40.363c-4.142,0-7.5,3.358-7.5,7.5v40.081
			c0,8.556,6.96,15.516,15.516,15.516h61.022l1.124,1.124c1.611,1.612,2.499,3.754,2.499,6.033v17.928h-8.532
			c-4.142,0-7.5,3.358-7.5,7.5c0,4.142,3.358,7.5,7.5,7.5H497V336.165z"/>
	</g>
</g>
<g>
	<g>
		<path d="M360.209,280.567H39.564c-4.142,0-7.5,3.358-7.5,7.5c0,4.142,3.358,7.5,7.5,7.5h320.645c4.142,0,7.5-3.358,7.5-7.5
			C367.709,283.925,364.351,280.567,360.209,280.567z"/>
	</g>
</g>
<g>
</g>
<g>
</g>
<g>
</g>
<g>
</g>
<g>
</g>
<g>
</g>
<g>
</g>
<g>
</g>
<g>
</g>
<g>
</g>
<g>
</g>
<g>
</g>
<g>
</g>
<g>
</g>
<g>
</g>
</svg>
